<?xml version="1.0"?>
<svg xmlns="http://www.w3.org/2000/svg" id="Capa_1" enable-background="new 0 0 511.946 511.946" height="512px" viewBox="0 0 511.946 511.946" width="512px"><g><g><g><path d="m380.675 133.11c-3.309-2.497-8.016-1.837-10.512 1.47-.969 1.284-2.444 2.02-4.047 2.02-1.595 0-3.065-.731-4.034-2.004-2.509-3.299-7.219-3.939-10.518-1.431-3.299 2.509-3.94 7.218-1.431 10.518 3.832 5.038 9.657 7.928 15.982 7.928 6.262 0 12.254-2.987 16.029-7.989 2.498-3.309 1.839-8.015-1.469-10.512z" data-original="#000000" class="active-path" data-old_color="#000000" fill="#E40000"/><path d="m397.739 169.43c20.78-11.267 34.924-33.278 34.924-58.531 0-36.686-29.846-66.532-66.532-66.532s-66.532 29.846-66.532 66.532c0 26.568 15.658 49.538 38.226 60.194-.731.573-1.612.975-2.594 1.125l-61.753 9.427v-73.313c0-4.145-3.36-7.506-7.506-7.506-4.145 0-7.506 3.36-7.506 7.506v378.692c0 4.98-4.052 9.032-9.032 9.032s-9.032-4.052-9.032-9.032v-462.98c0-4.98 4.052-9.032 9.032-9.032s9.032 4.052 9.032 9.032v49.179c0 4.145 3.36 7.506 7.506 7.506 4.145 0 7.506-3.36 7.506-7.506v-49.179c-.001-13.258-10.787-24.044-24.044-24.044-13.211 0-23.964 10.71-24.04 23.903-29.555-10.424-59.846-8.459-90.204 5.907-18.673 8.838-47.704 14.174-67.311 5.008-4.659-2.177-10.042-1.821-14.401.953-4.412 2.808-7.045 7.6-7.045 12.821v98.926c0 4.804 2.303 9.366 6.162 12.204 11.073 8.143 25.285 11.449 39.937 11.449 17.216 0 35.038-4.564 49.079-11.209 28.301-13.393 56.461-14.532 83.779-3.422v32.408c-7.394.246-14.263 3.288-19.429 8.641-5.389 5.585-8.205 12.939-7.929 20.709.518 14.581 12.65 26.53 27.358 27.281v241.445c0 13.258 10.786 24.044 24.044 24.044s24.044-10.786 24.044-24.044v-241.407h32.509l-.032 93.89c0 4.145 3.36 7.506 7.506 7.506s7.506-3.36 7.506-7.506l.034-94.395c.009-3.872-1.491-7.514-4.226-10.255-2.734-2.741-6.372-4.251-10.245-4.251h-33.051v-33.776l64.019-9.773c6.793-1.037 12.324-5.239 15.233-10.982 4.33.889 8.812 1.356 13.402 1.356 5.17 0 10.198-.612 15.032-1.734 3.001 4.176 7.55 7.236 12.909 8.291 32.698 6.441 56.429 35.344 56.429 68.723v90.245c0 7.353-5.982 13.335-13.335 13.335s-13.335-5.982-13.335-13.335l-.322-101.652c-.015-4.14-3.371-7.502-7.519-7.479-4.14.007-7.492 3.366-7.492 7.506v237.481c0 9.992-8.129 18.121-18.122 18.121-9.992 0-18.122-8.129-18.122-18.123l-.035-120.253c-.001-4.145-3.362-7.504-7.507-7.504-4.145.001-7.505 3.361-7.505 7.506v120.253c0 9.992-8.129 18.121-18.122 18.121s-18.122-8.129-18.122-18.121v-104.362c0-4.145-3.36-7.506-7.506-7.506s-7.506 3.36-7.506 7.506v104.363c0 18.269 14.863 33.133 33.133 33.133 10.326 0 19.564-4.748 25.645-12.176 6.081 7.427 15.319 12.176 25.645 12.176 18.27 0 33.133-14.863 33.133-33.133v-111.022c4.053 2.238 8.709 3.512 13.657 3.512 15.63 0 28.346-12.716 28.346-28.346v-90.245c.001-40.269-28.457-75.159-67.773-83.282zm-172.349 61.094c-6.709-.704-12.121-6.155-12.356-12.76-.13-3.662 1.194-7.125 3.729-9.752 2.31-2.394 5.346-3.794 8.627-4.028zm0-90.051c-29.553-10.421-59.845-8.444-90.2 5.92-33.651 15.926-62.513 9.465-73.702 1.236-.022-.016-.044-.059-.044-.11v-98.926c0-.107.077-.153.091-.169 24.131 11.273 57.604 5.591 80.075-5.044 28.302-13.393 56.462-14.542 83.779-3.431v100.524zm140.741 21.947c-28.409 0-51.52-23.112-51.52-51.521s23.112-51.521 51.52-51.521 51.521 23.112 51.521 51.521-23.113 51.521-51.521 51.521z" data-original="#000000" class="active-path" data-old_color="#000000" fill="#E40000"/></g></g></g> </svg>
